<svg width="60" height="60" viewBox="0 0 60 60" fill="none" xmlns="http://www.w3.org/2000/svg">
<rect x="0.5" y="0.5" width="59" height="59" rx="9.5" fill="#FAFAFA"/>
<rect x="0.5" y="0.5" width="59" height="59" rx="9.5" stroke="#F9F9F9"/>
<path d="M37.5 21C37.5 25.1421 34.1421 28.5 30 28.5C25.8579 28.5 22.5 25.1421 22.5 21C22.5 16.8579 25.8579 13.5 30 13.5C34.1421 13.5 37.5 16.8579 37.5 21Z" fill="#6D727E"/>
<path d="M43.5 39C43.5 43.1421 37.4558 46.5 30 46.5C22.5442 46.5 16.5 43.1421 16.5 39C16.5 34.8579 22.5442 31.5 30 31.5C37.4558 31.5 43.5 34.8579 43.5 39Z" fill="#6D727E"/>
</svg>
