<svg width="41" height="40" viewBox="0 0 41 40" fill="none" xmlns="http://www.w3.org/2000/svg">
<circle cx="21" cy="20" r="19.5" stroke="#007AFF"/>
<mask id="path-2-inside-1_165_8350" fill="white">
<path fill-rule="evenodd" clip-rule="evenodd" d="M15.2803 13.2197C14.9874 12.9268 14.5126 12.9268 14.2197 13.2197C13.9268 13.5126 13.9268 13.9874 14.2197 14.2803L19.6893 19.75L14.5524 24.8869C14.2595 25.1798 14.2595 25.6547 14.5524 25.9476C14.8453 26.2405 15.3202 26.2405 15.6131 25.9476L20.75 20.8107L25.8869 25.9476C26.1798 26.2405 26.6547 26.2405 26.9476 25.9476C27.2405 25.6547 27.2405 25.1798 26.9476 24.8869L21.8107 19.75L27.2803 14.2803C27.5732 13.9874 27.5732 13.5126 27.2803 13.2197C26.9874 12.9268 26.5126 12.9268 26.2197 13.2197L20.75 18.6893L15.2803 13.2197Z"/>
</mask>
<path fill-rule="evenodd" clip-rule="evenodd" d="M15.2803 13.2197C14.9874 12.9268 14.5126 12.9268 14.2197 13.2197C13.9268 13.5126 13.9268 13.9874 14.2197 14.2803L19.6893 19.75L14.5524 24.8869C14.2595 25.1798 14.2595 25.6547 14.5524 25.9476C14.8453 26.2405 15.3202 26.2405 15.6131 25.9476L20.75 20.8107L25.8869 25.9476C26.1798 26.2405 26.6547 26.2405 26.9476 25.9476C27.2405 25.6547 27.2405 25.1798 26.9476 24.8869L21.8107 19.75L27.2803 14.2803C27.5732 13.9874 27.5732 13.5126 27.2803 13.2197C26.9874 12.9268 26.5126 12.9268 26.2197 13.2197L20.75 18.6893L15.2803 13.2197Z" fill="#007AFF"/>
<path d="M14.2197 13.2197L14.9268 13.9268L14.2197 13.2197ZM15.2803 13.2197L14.5732 13.9268L15.2803 13.2197ZM14.2197 14.2803L14.9268 13.5732L14.9268 13.5732L14.2197 14.2803ZM19.6893 19.75L20.3964 20.4571L21.1036 19.75L20.3964 19.0429L19.6893 19.75ZM14.5524 24.8869L13.8453 24.1798H13.8453L14.5524 24.8869ZM14.5524 25.9476L13.8453 26.6547H13.8453L14.5524 25.9476ZM15.6131 25.9476L14.906 25.2405H14.906L15.6131 25.9476ZM20.75 20.8107L21.4571 20.1036L20.75 19.3964L20.0429 20.1036L20.75 20.8107ZM26.9476 24.8869L26.2405 25.594L26.9476 24.8869ZM21.8107 19.75L21.1036 19.0429L20.3964 19.75L21.1036 20.4571L21.8107 19.75ZM27.2803 14.2803L26.5732 13.5732V13.5732L27.2803 14.2803ZM27.2803 13.2197L26.5732 13.9268L26.5732 13.9268L27.2803 13.2197ZM26.2197 13.2197L26.9268 13.9268L26.9268 13.9268L26.2197 13.2197ZM20.75 18.6893L20.0429 19.3964L20.75 20.1036L21.4571 19.3964L20.75 18.6893ZM14.9268 13.9268C14.8291 14.0244 14.6709 14.0244 14.5732 13.9268L15.9874 12.5126C15.304 11.8291 14.196 11.8291 13.5126 12.5126L14.9268 13.9268ZM14.9268 13.5732C15.0244 13.6709 15.0244 13.8291 14.9268 13.9268L13.5126 12.5126C12.8291 13.196 12.8291 14.304 13.5126 14.9874L14.9268 13.5732ZM20.3964 19.0429L14.9268 13.5732L13.5126 14.9874L18.9822 20.4571L20.3964 19.0429ZM18.9822 19.0429L13.8453 24.1798L15.2595 25.594L20.3964 20.4571L18.9822 19.0429ZM13.8453 24.1798C13.1619 24.8632 13.1619 25.9713 13.8453 26.6547L15.2595 25.2405C15.3571 25.3381 15.3571 25.4964 15.2595 25.594L13.8453 24.1798ZM13.8453 26.6547C14.5287 27.3381 15.6368 27.3381 16.3202 26.6547L14.906 25.2405C15.0036 25.1429 15.1619 25.1429 15.2595 25.2405L13.8453 26.6547ZM16.3202 26.6547L21.4571 21.5178L20.0429 20.1036L14.906 25.2405L16.3202 26.6547ZM26.594 25.2405L21.4571 20.1036L20.0429 21.5178L25.1798 26.6547L26.594 25.2405ZM26.2405 25.2405C26.3381 25.1429 26.4964 25.1429 26.594 25.2405L25.1798 26.6547C25.8632 27.3381 26.9713 27.3381 27.6547 26.6547L26.2405 25.2405ZM26.2405 25.594C26.1429 25.4964 26.1429 25.3381 26.2405 25.2405L27.6547 26.6547C28.3381 25.9713 28.3381 24.8632 27.6547 24.1798L26.2405 25.594ZM21.1036 20.4571L26.2405 25.594L27.6547 24.1798L22.5178 19.0429L21.1036 20.4571ZM22.5178 20.4571L27.9874 14.9874L26.5732 13.5732L21.1036 19.0429L22.5178 20.4571ZM27.9874 14.9874C28.6709 14.304 28.6709 13.196 27.9874 12.5126L26.5732 13.9268C26.4756 13.8291 26.4756 13.6709 26.5732 13.5732L27.9874 14.9874ZM27.9874 12.5126C27.304 11.8291 26.196 11.8291 25.5126 12.5126L26.9268 13.9268C26.8291 14.0244 26.6709 14.0244 26.5732 13.9268L27.9874 12.5126ZM25.5126 12.5126L20.0429 17.9822L21.4571 19.3964L26.9268 13.9268L25.5126 12.5126ZM14.5732 13.9268L20.0429 19.3964L21.4571 17.9822L15.9874 12.5126L14.5732 13.9268Z" fill="#007AFF" mask="url(#path-2-inside-1_165_8350)"/>
</svg>
