<svg width="42" height="40" viewBox="0 0 42 40" fill="none" xmlns="http://www.w3.org/2000/svg">
<circle cx="21.5" cy="20" r="19.25" stroke="currentColor" stroke-width="1.5"/>
<mask id="path-2-inside-1_165_10939" fill="white">
<path fill-rule="evenodd" clip-rule="evenodd" d="M15.7803 13.2197C15.4874 12.9268 15.0126 12.9268 14.7197 13.2197C14.4268 13.5126 14.4268 13.9874 14.7197 14.2803L20.1893 19.75L15.0524 24.8869C14.7595 25.1798 14.7595 25.6547 15.0524 25.9476C15.3453 26.2405 15.8202 26.2405 16.1131 25.9476L21.25 20.8107L26.3869 25.9476C26.6798 26.2405 27.1547 26.2405 27.4476 25.9476C27.7405 25.6547 27.7405 25.1798 27.4476 24.8869L22.3107 19.75L27.7803 14.2803C28.0732 13.9874 28.0732 13.5126 27.7803 13.2197C27.4874 12.9268 27.0126 12.9268 26.7197 13.2197L21.25 18.6893L15.7803 13.2197Z"/>
</mask>
<path fill-rule="evenodd" clip-rule="evenodd" d="M15.7803 13.2197C15.4874 12.9268 15.0126 12.9268 14.7197 13.2197C14.4268 13.5126 14.4268 13.9874 14.7197 14.2803L20.1893 19.75L15.0524 24.8869C14.7595 25.1798 14.7595 25.6547 15.0524 25.9476C15.3453 26.2405 15.8202 26.2405 16.1131 25.9476L21.25 20.8107L26.3869 25.9476C26.6798 26.2405 27.1547 26.2405 27.4476 25.9476C27.7405 25.6547 27.7405 25.1798 27.4476 24.8869L22.3107 19.75L27.7803 14.2803C28.0732 13.9874 28.0732 13.5126 27.7803 13.2197C27.4874 12.9268 27.0126 12.9268 26.7197 13.2197L21.25 18.6893L15.7803 13.2197Z" fill="currentColor"/>
<path d="M14.7197 13.2197L15.4268 13.9268L14.7197 13.2197ZM15.7803 13.2197L15.0732 13.9268L15.7803 13.2197ZM14.7197 14.2803L15.4268 13.5732L15.4268 13.5732L14.7197 14.2803ZM20.1893 19.75L20.8964 20.4571L21.6036 19.75L20.8964 19.0429L20.1893 19.75ZM15.0524 24.8869L14.3453 24.1798H14.3453L15.0524 24.8869ZM15.0524 25.9476L14.3453 26.6547H14.3453L15.0524 25.9476ZM16.1131 25.9476L15.406 25.2405H15.406L16.1131 25.9476ZM21.25 20.8107L21.9571 20.1036L21.25 19.3964L20.5429 20.1036L21.25 20.8107ZM27.4476 24.8869L26.7405 25.594L27.4476 24.8869ZM22.3107 19.75L21.6036 19.0429L20.8964 19.75L21.6036 20.4571L22.3107 19.75ZM27.7803 14.2803L27.0732 13.5732V13.5732L27.7803 14.2803ZM27.7803 13.2197L27.0732 13.9268L27.0732 13.9268L27.7803 13.2197ZM26.7197 13.2197L27.4268 13.9268L27.4268 13.9268L26.7197 13.2197ZM21.25 18.6893L20.5429 19.3964L21.25 20.1036L21.9571 19.3964L21.25 18.6893ZM15.4268 13.9268C15.3291 14.0244 15.1709 14.0244 15.0732 13.9268L16.4874 12.5126C15.804 11.8291 14.696 11.8291 14.0126 12.5126L15.4268 13.9268ZM15.4268 13.5732C15.5244 13.6709 15.5244 13.8291 15.4268 13.9268L14.0126 12.5126C13.3291 13.196 13.3291 14.304 14.0126 14.9874L15.4268 13.5732ZM20.8964 19.0429L15.4268 13.5732L14.0126 14.9874L19.4822 20.4571L20.8964 19.0429ZM19.4822 19.0429L14.3453 24.1798L15.7595 25.594L20.8964 20.4571L19.4822 19.0429ZM14.3453 24.1798C13.6619 24.8632 13.6619 25.9713 14.3453 26.6547L15.7595 25.2405C15.8571 25.3381 15.8571 25.4964 15.7595 25.594L14.3453 24.1798ZM14.3453 26.6547C15.0287 27.3381 16.1368 27.3381 16.8202 26.6547L15.406 25.2405C15.5036 25.1429 15.6619 25.1429 15.7595 25.2405L14.3453 26.6547ZM16.8202 26.6547L21.9571 21.5178L20.5429 20.1036L15.406 25.2405L16.8202 26.6547ZM27.094 25.2405L21.9571 20.1036L20.5429 21.5178L25.6798 26.6547L27.094 25.2405ZM26.7405 25.2405C26.8381 25.1429 26.9964 25.1429 27.094 25.2405L25.6798 26.6547C26.3632 27.3381 27.4713 27.3381 28.1547 26.6547L26.7405 25.2405ZM26.7405 25.594C26.6429 25.4964 26.6429 25.3381 26.7405 25.2405L28.1547 26.6547C28.8381 25.9713 28.8381 24.8632 28.1547 24.1798L26.7405 25.594ZM21.6036 20.4571L26.7405 25.594L28.1547 24.1798L23.0178 19.0429L21.6036 20.4571ZM23.0178 20.4571L28.4874 14.9874L27.0732 13.5732L21.6036 19.0429L23.0178 20.4571ZM28.4874 14.9874C29.1709 14.304 29.1709 13.196 28.4874 12.5126L27.0732 13.9268C26.9756 13.8291 26.9756 13.6709 27.0732 13.5732L28.4874 14.9874ZM28.4874 12.5126C27.804 11.8291 26.696 11.8291 26.0126 12.5126L27.4268 13.9268C27.3291 14.0244 27.1709 14.0244 27.0732 13.9268L28.4874 12.5126ZM26.0126 12.5126L20.5429 17.9822L21.9571 19.3964L27.4268 13.9268L26.0126 12.5126ZM15.0732 13.9268L20.5429 19.3964L21.9571 17.9822L16.4874 12.5126L15.0732 13.9268Z" fill="currentColor" mask="url(#path-2-inside-1_165_10939)"/>
</svg>
