<svg width="17" height="17" viewBox="0 0 17 17" fill="none" xmlns="http://www.w3.org/2000/svg">
<path d="M16 8.5C16 12.6421 12.6421 16 8.5 16M16 8.5C16 4.35786 12.6421 1 8.5 1M16 8.5C16 7.25736 12.6421 6.25 8.5 6.25C4.35786 6.25 1 7.25736 1 8.5M16 8.5C16 9.74264 12.6421 10.75 8.5 10.75C4.35786 10.75 1 9.74264 1 8.5M8.5 16C4.35786 16 1 12.6421 1 8.5M8.5 16C10.1569 16 11.5 12.6421 11.5 8.5C11.5 4.35786 10.1569 1 8.5 1M8.5 16C6.84315 16 5.5 12.6421 5.5 8.5C5.5 4.35786 6.84315 1 8.5 1M1 8.5C1 4.35786 4.35786 1 8.5 1" stroke="#007AFF" stroke-width="1.5"/>
</svg>
