<svg width="41" height="40" viewBox="0 0 41 40" fill="none" xmlns="http://www.w3.org/2000/svg">
<circle cx="21" cy="20" r="19.5" stroke="#007AFF"/>
<path fill-rule="evenodd" clip-rule="evenodd" d="M27.8333 19.1667C27.8333 23.4009 24.4009 26.8333 20.1667 26.8333C15.9325 26.8333 12.5 23.4009 12.5 19.1667C12.5 14.9325 15.9325 11.5 20.1667 11.5C24.4009 11.5 27.8333 14.9325 27.8333 19.1667ZM26.3185 25.9625C24.692 27.4358 22.5341 28.3333 20.1667 28.3333C15.1041 28.3333 11 24.2293 11 19.1667C11 14.1041 15.1041 10 20.1667 10C25.2293 10 29.3333 14.1041 29.3333 19.1667C29.3333 21.3216 28.5898 23.3028 27.3452 24.8678L30.697 28.2197C30.9899 28.5126 30.9899 28.9874 30.697 29.2803C30.4041 29.5732 29.9292 29.5732 29.6363 29.2803L26.3185 25.9625Z" fill="#007AFF"/>
</svg>
