<svg width="20" height="20" viewBox="0 0 20 20" fill="none" xmlns="http://www.w3.org/2000/svg">
<path fill-rule="evenodd" clip-rule="evenodd" d="M16.8333 9.16667C16.8333 13.4009 13.4009 16.8333 9.16667 16.8333C4.93248 16.8333 1.5 13.4009 1.5 9.16667C1.5 4.93248 4.93248 1.5 9.16667 1.5C13.4009 1.5 16.8333 4.93248 16.8333 9.16667ZM15.3185 15.9625C13.692 17.4358 11.5341 18.3333 9.16667 18.3333C4.10406 18.3333 0 14.2293 0 9.16667C0 4.10406 4.10406 0 9.16667 0C14.2293 0 18.3333 4.10406 18.3333 9.16667C18.3333 11.3216 17.5898 13.3028 16.3452 14.8678L19.697 18.2197C19.9899 18.5126 19.9899 18.9874 19.697 19.2803C19.4041 19.5732 18.9292 19.5732 18.6363 19.2803L15.3185 15.9625Z" fill="currentColor"/>
</svg>
