<svg width="1440" height="456" viewBox="0 0 1440 456" fill="none" xmlns="http://www.w3.org/2000/svg">
<g filter="url(#filter0_f_121_5320)">
<ellipse cx="720" cy="231" rx="600" ry="225" fill="#EAF7FF"/>
</g>
<path d="M1172.54 281.058L1188.72 257.945L1182.18 253.374L1166 276.486L1172.54 281.058Z" fill="#79D3FE"/>
<path d="M942.63 332.687L988.42 394.148L998.836 386.403L953.046 324.942L942.63 332.687Z" fill="#FBA5E2"/>
<path d="M998.87 102.465C998.87 103.47 998.571 104.453 998.012 105.288C997.454 106.124 996.659 106.775 995.73 107.16C994.8 107.544 993.778 107.645 992.791 107.449C991.804 107.253 990.898 106.769 990.187 106.058C989.475 105.348 988.991 104.442 988.795 103.457C988.598 102.471 988.699 101.449 989.084 100.521C989.469 99.5922 990.121 98.7986 990.957 98.2403C991.794 97.682 992.777 97.3839 993.783 97.3839C995.132 97.3839 996.426 97.9193 997.38 98.8722C998.334 99.8252 998.87 101.118 998.87 102.465Z" fill="#FBA5E2"/>
<path d="M895.04 352.061C896.889 352.061 898.388 350.563 898.388 348.716C898.388 346.869 896.889 345.371 895.04 345.371C893.191 345.371 891.692 346.869 891.692 348.716C891.692 350.563 893.191 352.061 895.04 352.061Z" fill="#FBA5E2"/>
<path d="M815.944 72.9422C817.793 72.9422 819.292 71.4447 819.292 69.5975C819.292 67.7503 817.793 66.2529 815.944 66.2529C814.095 66.2529 812.596 67.7503 812.596 69.5975C812.596 71.4447 814.095 72.9422 815.944 72.9422Z" fill="#FBA5E2"/>
<path d="M784.012 176.949C788.036 175.46 790.089 170.994 788.598 166.975C787.107 162.955 782.637 160.904 778.614 162.393C774.591 163.883 772.537 168.348 774.028 172.368C775.519 176.387 779.989 178.438 784.012 176.949Z" fill="#FBA5E2"/>
<path d="M1012.48 318.528H1009.26V315.312C1009.26 314.684 1009.01 314.081 1008.56 313.637C1008.12 313.193 1007.51 312.943 1006.89 312.943C1006.26 312.943 1005.65 313.193 1005.21 313.637C1004.76 314.081 1004.51 314.684 1004.51 315.312V318.528H1001.29C1000.97 318.507 1000.65 318.551 1000.34 318.66C1000.03 318.769 999.753 318.94 999.516 319.162C999.278 319.383 999.089 319.651 998.96 319.949C998.831 320.247 998.764 320.568 998.764 320.892C998.764 321.217 998.831 321.538 998.96 321.835C999.089 322.133 999.278 322.401 999.516 322.623C999.753 322.844 1000.03 323.015 1000.34 323.124C1000.65 323.233 1000.97 323.278 1001.29 323.256H1004.51V326.472C1004.51 327.1 1004.76 327.703 1005.21 328.147C1005.65 328.591 1006.26 328.841 1006.89 328.841C1007.51 328.841 1008.12 328.591 1008.56 328.147C1009.01 327.703 1009.26 327.1 1009.26 326.472V323.256H1012.48C1012.8 323.278 1013.13 323.233 1013.43 323.124C1013.74 323.015 1014.02 322.844 1014.26 322.623C1014.49 322.401 1014.68 322.133 1014.81 321.835C1014.94 321.538 1015.01 321.217 1015.01 320.892C1015.01 320.568 1014.94 320.247 1014.81 319.949C1014.68 319.651 1014.49 319.383 1014.26 319.162C1014.02 318.94 1013.74 318.769 1013.43 318.66C1013.13 318.551 1012.8 318.507 1012.48 318.528Z" fill="#D7D1EB"/>
<path d="M810.858 318.528H807.639V315.312C807.639 314.684 807.389 314.081 806.944 313.637C806.5 313.193 805.896 312.943 805.267 312.943C804.639 312.943 804.035 313.193 803.591 313.637C803.146 314.081 802.896 314.684 802.896 315.312V318.528H799.677C799.353 318.507 799.028 318.551 798.722 318.66C798.415 318.769 798.135 318.94 797.898 319.162C797.661 319.383 797.471 319.651 797.342 319.949C797.213 320.247 797.146 320.568 797.146 320.892C797.146 321.217 797.213 321.538 797.342 321.835C797.471 322.133 797.661 322.401 797.898 322.623C798.135 322.844 798.415 323.015 798.722 323.124C799.028 323.233 799.353 323.278 799.677 323.256H802.896V326.472C802.896 327.1 803.146 327.703 803.591 328.147C804.035 328.591 804.639 328.841 805.267 328.841C805.896 328.841 806.5 328.591 806.944 328.147C807.389 327.703 807.639 327.1 807.639 326.472V323.256H810.858C811.182 323.278 811.507 323.233 811.813 323.124C812.119 323.015 812.4 322.844 812.637 322.623C812.874 322.401 813.064 322.133 813.193 321.835C813.322 321.538 813.389 321.217 813.389 320.892C813.389 320.568 813.322 320.247 813.193 319.949C813.064 319.651 812.874 319.383 812.637 319.162C812.4 318.94 812.119 318.769 811.813 318.66C811.507 318.551 811.182 318.507 810.858 318.528Z" fill="#D7D1EB"/>
<path d="M276.205 289.693L258.134 268.024L252 273.129L270.072 294.798L276.205 289.693Z" fill="#FE61CA"/>
<path d="M502.738 350.463C508.013 350.463 512.289 346.192 512.289 340.923C512.289 335.653 508.013 331.382 502.738 331.382C497.464 331.382 493.188 335.653 493.188 340.923C493.188 346.192 497.464 350.463 502.738 350.463Z" fill="#FBA5E2"/>
<path d="M682.037 107.547C682.037 108.552 681.738 109.534 681.18 110.37C680.621 111.205 679.826 111.857 678.897 112.241C677.967 112.626 676.945 112.726 675.958 112.53C674.971 112.334 674.065 111.85 673.354 111.14C672.642 110.429 672.158 109.524 671.962 108.538C671.766 107.552 671.866 106.531 672.251 105.602C672.636 104.674 673.288 103.88 674.125 103.322C674.961 102.763 675.944 102.465 676.95 102.465C678.299 102.468 679.591 103.004 680.544 103.957C681.497 104.909 682.034 106.2 682.037 107.547Z" fill="#FBA5E2"/>
<path d="M481.374 123.391H478.155V120.175C478.176 119.851 478.131 119.526 478.022 119.22C477.913 118.915 477.743 118.635 477.521 118.398C477.299 118.161 477.031 117.972 476.733 117.842C476.435 117.713 476.113 117.646 475.788 117.646C475.464 117.646 475.142 117.713 474.844 117.842C474.546 117.972 474.278 118.161 474.056 118.398C473.834 118.635 473.664 118.915 473.555 119.22C473.445 119.526 473.4 119.851 473.422 120.175V123.391H470.203C469.879 123.369 469.554 123.414 469.248 123.523C468.942 123.632 468.661 123.802 468.424 124.024C468.187 124.246 467.998 124.514 467.868 124.811C467.739 125.109 467.672 125.43 467.672 125.755C467.672 126.079 467.739 126.4 467.868 126.698C467.998 126.996 468.187 127.264 468.424 127.485C468.661 127.707 468.942 127.877 469.248 127.986C469.554 128.095 469.879 128.14 470.203 128.118H473.422V131.334C473.4 131.658 473.445 131.983 473.555 132.289C473.664 132.594 473.834 132.875 474.056 133.112C474.278 133.349 474.546 133.538 474.844 133.667C475.142 133.796 475.464 133.863 475.788 133.863C476.113 133.863 476.435 133.796 476.733 133.667C477.031 133.538 477.299 133.349 477.521 133.112C477.743 132.875 477.913 132.594 478.022 132.289C478.131 131.983 478.176 131.658 478.155 131.334V128.118H481.374C481.698 128.14 482.023 128.095 482.329 127.986C482.635 127.877 482.915 127.707 483.153 127.485C483.39 127.264 483.579 126.996 483.709 126.698C483.838 126.4 483.905 126.079 483.905 125.755C483.905 125.43 483.838 125.109 483.709 124.811C483.579 124.514 483.39 124.246 483.153 124.024C482.915 123.802 482.635 123.632 482.329 123.523C482.023 123.414 481.698 123.369 481.374 123.391Z" fill="#D7D1EB"/>
<path d="M738.587 159.421H735.368V156.205C735.368 155.577 735.118 154.974 734.673 154.53C734.229 154.085 733.626 153.836 732.997 153.836C732.368 153.836 731.764 154.085 731.32 154.53C730.875 154.974 730.625 155.577 730.625 156.205V159.421H727.406C726.777 159.421 726.174 159.671 725.729 160.115C725.284 160.559 725.034 161.162 725.034 161.79C725.034 162.418 725.284 163.021 725.729 163.465C726.174 163.91 726.777 164.159 727.406 164.159H730.625V167.375C730.625 168.004 730.875 168.606 731.32 169.051C731.764 169.495 732.368 169.744 732.997 169.744C733.626 169.744 734.229 169.495 734.673 169.051C735.118 168.606 735.368 168.004 735.368 167.375V164.159H738.587C739.216 164.159 739.819 163.91 740.264 163.465C740.709 163.021 740.959 162.418 740.959 161.79C740.959 161.162 740.709 160.559 740.264 160.115C739.819 159.671 739.216 159.421 738.587 159.421Z" fill="#D7D1EB"/>
<path d="M631.807 370.874H628.587V367.658C628.587 367.03 628.338 366.428 627.893 365.983C627.448 365.539 626.845 365.289 626.216 365.289C625.587 365.289 624.984 365.539 624.539 365.983C624.094 366.428 623.844 367.03 623.844 367.658V370.874H620.625C619.996 370.874 619.393 371.124 618.948 371.568C618.504 372.013 618.254 372.615 618.254 373.244C618.254 373.872 618.504 374.475 618.948 374.919C619.393 375.363 619.996 375.613 620.625 375.613H623.844V378.829C623.844 379.457 624.094 380.06 624.539 380.504C624.984 380.948 625.587 381.198 626.216 381.198C626.845 381.198 627.448 380.948 627.893 380.504C628.338 380.06 628.587 379.457 628.587 378.829V375.613H631.807C632.436 375.613 633.039 375.363 633.483 374.919C633.928 374.475 634.178 373.872 634.178 373.244C634.178 372.615 633.928 372.013 633.483 371.568C633.039 371.124 632.436 370.874 631.807 370.874Z" fill="#D7D1EB"/>
<path d="M321.553 292.585H318.334V289.369C318.334 288.741 318.084 288.138 317.639 287.694C317.194 287.25 316.591 287 315.962 287C315.333 287 314.73 287.25 314.285 287.694C313.841 288.138 313.591 288.741 313.591 289.369V292.585H310.371C310.06 292.585 309.752 292.646 309.464 292.766C309.176 292.885 308.915 293.059 308.695 293.279C308.474 293.499 308.3 293.76 308.181 294.048C308.061 294.335 308 294.643 308 294.954C308 295.265 308.061 295.573 308.181 295.861C308.3 296.148 308.474 296.41 308.695 296.63C308.915 296.85 309.176 297.024 309.464 297.143C309.752 297.262 310.06 297.323 310.371 297.323H313.591V300.539C313.591 301.168 313.841 301.77 314.285 302.215C314.73 302.659 315.333 302.909 315.962 302.909C316.591 302.909 317.194 302.659 317.639 302.215C318.084 301.77 318.334 301.168 318.334 300.539V297.323H321.553C322.182 297.323 322.785 297.074 323.23 296.63C323.674 296.185 323.924 295.583 323.924 294.954C323.924 294.326 323.674 293.723 323.23 293.279C322.785 292.835 322.182 292.585 321.553 292.585Z" fill="#D7D1EB"/>
<path d="M904.869 61L921.877 100.032L887.217 110.956L904.869 61Z" fill="url(#paint0_linear_121_5320)"/>
<path d="M1082.95 359.456C1079.58 372.056 1066.38 381.526 1045.07 387.75C1023.79 393.964 994.6 396.89 959.545 396.53C889.441 395.812 796.012 381.957 695.882 355.127C595.753 328.298 507.914 293.582 446.843 259.152C416.304 241.936 392.484 224.805 377.167 208.786C361.825 192.742 355.131 177.941 358.507 165.341C361.883 152.741 375.081 143.271 396.389 137.047C417.664 130.833 446.858 127.907 481.913 128.266C552.017 128.985 645.446 142.84 745.576 169.67C845.706 196.499 933.545 231.215 994.616 265.644C1025.15 282.861 1048.97 299.992 1064.29 316.011C1079.63 332.055 1086.33 346.855 1082.95 359.456Z" stroke="#007AFF" stroke-opacity="0.1"/>
<defs>
<filter id="filter0_f_121_5320" x="-180" y="-294" width="1800" height="1050" filterUnits="userSpaceOnUse" color-interpolation-filters="sRGB">
<feFlood flood-opacity="0" result="BackgroundImageFix"/>
<feBlend mode="normal" in="SourceGraphic" in2="BackgroundImageFix" result="shape"/>
<feGaussianBlur stdDeviation="150" result="effect1_foregroundBlur_121_5320"/>
</filter>
<linearGradient id="paint0_linear_121_5320" x1="897.7" y1="129.172" x2="920.001" y2="53.0366" gradientUnits="userSpaceOnUse">
<stop stop-color="#79D3FE"/>
<stop offset="1" stop-color="#79D3FE" stop-opacity="0.2"/>
</linearGradient>
</defs>
</svg>
