<svg width="30" height="30" viewBox="0 0 30 30" fill="none" xmlns="http://www.w3.org/2000/svg">
<path d="M4 16.45H3.25V17.95H4V16.45ZM26 17.95H26.75V16.45H26V17.95ZM11.7 25.25C11.2858 25.25 10.95 25.5858 10.95 26C10.95 26.4142 11.2858 26.75 11.7 26.75V25.25ZM18.3 26.75C18.7142 26.75 19.05 26.4142 19.05 26C19.05 25.5858 18.7142 25.25 18.3 25.25V26.75ZM15.75 21.6C15.75 21.1858 15.4142 20.85 15 20.85C14.5858 20.85 14.25 21.1858 14.25 21.6H15.75ZM7.3 4.75H22.7V3.25H7.3V4.75ZM25.25 7.3V18.3H26.75V7.3H25.25ZM22.7 20.85H7.3V22.35H22.7V20.85ZM4.75 18.3V7.3H3.25V18.3H4.75ZM7.3 20.85C5.89167 20.85 4.75 19.7083 4.75 18.3H3.25C3.25 20.5368 5.06325 22.35 7.3 22.35V20.85ZM25.25 18.3C25.25 19.7083 24.1083 20.85 22.7 20.85V22.35C24.9368 22.35 26.75 20.5368 26.75 18.3H25.25ZM22.7 4.75C24.1083 4.75 25.25 5.89167 25.25 7.3H26.75C26.75 5.06325 24.9368 3.25 22.7 3.25V4.75ZM7.3 3.25C5.06325 3.25 3.25 5.06325 3.25 7.3H4.75C4.75 5.89167 5.89167 4.75 7.3 4.75V3.25ZM4 17.95H26V16.45H4V17.95ZM11.7 26.75H15V25.25H11.7V26.75ZM15 26.75H18.3V25.25H15V26.75ZM15.75 26V21.6H14.25V26H15.75Z" fill="#6D727E"/>
</svg>
