<svg width="30" height="30" viewBox="0 0 30 30" fill="none" xmlns="http://www.w3.org/2000/svg">
<path d="M26 15C26 21.0751 21.0751 26 15 26M26 15C26 8.92487 21.0751 4 15 4M26 15C26 13.1775 21.0751 11.7 15 11.7C8.92487 11.7 4 13.1775 4 15M26 15C26 16.8225 21.0751 18.3 15 18.3C8.92487 18.3 4 16.8225 4 15M15 26C8.92487 26 4 21.0751 4 15M15 26C17.4301 26 19.4 21.0751 19.4 15C19.4 8.92487 17.4301 4 15 4M15 26C12.5699 26 10.6 21.0751 10.6 15C10.6 8.92487 12.5699 4 15 4M4 15C4 8.92487 8.92487 4 15 4" stroke="#6D727E" stroke-width="1.5"/>
</svg>
