<svg width="165" height="23" viewBox="0 0 165 23" fill="none" xmlns="http://www.w3.org/2000/svg">
<path d="M9 4.90909V8.31818H0.375V4.90909H9ZM2.04545 1.77273H6.75V13.7898C6.75 13.9716 6.78125 14.125 6.84375 14.25C6.90625 14.3693 7.00284 14.4602 7.13352 14.5227C7.2642 14.5795 7.43182 14.608 7.63636 14.608C7.77841 14.608 7.94318 14.5909 8.13068 14.5568C8.32386 14.5227 8.46591 14.4943 8.55682 14.4716L9.23864 17.7784C9.02841 17.8409 8.72727 17.9176 8.33523 18.0085C7.94886 18.0994 7.48864 18.1591 6.95455 18.1875C5.875 18.2443 4.96875 18.1335 4.2358 17.8551C3.50284 17.571 2.9517 17.125 2.58239 16.517C2.21307 15.9091 2.03409 15.1477 2.04545 14.233V1.77273ZM14.8075 18.2045C13.9722 18.2045 13.2336 18.0682 12.5916 17.7955C11.9552 17.517 11.4552 17.0966 11.0916 16.5341C10.7279 15.9716 10.5461 15.2557 10.5461 14.3864C10.5461 13.6705 10.6683 13.0597 10.9126 12.554C11.1569 12.0426 11.4978 11.625 11.9353 11.3011C12.3728 10.9773 12.8813 10.7301 13.4609 10.5597C14.0461 10.3892 14.6768 10.2784 15.3529 10.2273C16.0859 10.1705 16.6739 10.1023 17.1171 10.0227C17.566 9.9375 17.8899 9.82102 18.0887 9.6733C18.2876 9.51989 18.387 9.31818 18.387 9.06818V9.03409C18.387 8.69318 18.2563 8.43182 17.995 8.25C17.7336 8.06818 17.3984 7.97727 16.9893 7.97727C16.5404 7.97727 16.1739 8.0767 15.8899 8.27557C15.6114 8.46875 15.4438 8.76705 15.387 9.17045H11.0575C11.1143 8.375 11.3671 7.64205 11.816 6.97159C12.2705 6.29545 12.9325 5.75568 13.8018 5.35227C14.6711 4.94318 15.7563 4.73864 17.0575 4.73864C17.995 4.73864 18.8359 4.84943 19.5802 5.07102C20.3245 5.28693 20.958 5.59091 21.4808 5.98295C22.0035 6.36932 22.4012 6.82386 22.6739 7.34659C22.9524 7.86364 23.0916 8.42614 23.0916 9.03409V18H18.6938V16.1591H18.5916C18.3302 16.6477 18.012 17.0426 17.637 17.3438C17.2677 17.6449 16.8444 17.8636 16.3671 18C15.8955 18.1364 15.3757 18.2045 14.8075 18.2045ZM16.3416 15.2386C16.6995 15.2386 17.0347 15.1648 17.3472 15.017C17.6654 14.8693 17.9239 14.6562 18.1228 14.3778C18.3217 14.0994 18.4211 13.7614 18.4211 13.3636V12.2727C18.2961 12.3239 18.1626 12.3722 18.0205 12.4176C17.8842 12.4631 17.7364 12.5057 17.5774 12.5455C17.4239 12.5852 17.2592 12.6222 17.083 12.6562C16.9126 12.6903 16.7336 12.7216 16.5461 12.75C16.1825 12.8068 15.8842 12.9006 15.6512 13.0312C15.4239 13.1562 15.2535 13.3125 15.1399 13.5C15.0319 13.6818 14.9779 13.8864 14.9779 14.1136C14.9779 14.4773 15.1058 14.7557 15.3614 14.9489C15.6171 15.142 15.9438 15.2386 16.3416 15.2386ZM25.5794 22.9091V4.90909H30.2499V7.19318H30.3522C30.5226 6.75 30.7726 6.34375 31.1022 5.97443C31.4317 5.59943 31.8408 5.30114 32.3294 5.07954C32.8181 4.85227 33.3862 4.73864 34.034 4.73864C34.8976 4.73864 35.7186 4.96875 36.497 5.42898C37.2811 5.8892 37.9175 6.61364 38.4061 7.60227C38.9005 8.59091 39.1476 9.875 39.1476 11.4545C39.1476 12.9659 38.9118 14.2187 38.4402 15.2131C37.9743 16.2074 37.3493 16.9489 36.5652 17.4375C35.7868 17.9261 34.9317 18.1705 33.9999 18.1705C33.3862 18.1705 32.838 18.071 32.355 17.8722C31.8777 17.6676 31.4686 17.392 31.1277 17.0455C30.7925 16.6932 30.534 16.2955 30.3522 15.8523H30.284V22.9091H25.5794ZM30.1817 11.4545C30.1817 12.0909 30.2641 12.642 30.4289 13.108C30.5993 13.5682 30.838 13.9261 31.1448 14.1818C31.4573 14.4318 31.8294 14.5568 32.2612 14.5568C32.6931 14.5568 33.0595 14.4347 33.3607 14.1903C33.6675 13.9403 33.9005 13.5852 34.0595 13.125C34.2243 12.6591 34.3067 12.1023 34.3067 11.4545C34.3067 10.8068 34.2243 10.2528 34.0595 9.79261C33.9005 9.3267 33.6675 8.97159 33.3607 8.72727C33.0595 8.47727 32.6931 8.35227 32.2612 8.35227C31.8294 8.35227 31.4573 8.47727 31.1448 8.72727C30.838 8.97159 30.5993 9.3267 30.4289 9.79261C30.2641 10.2528 30.1817 10.8068 30.1817 11.4545ZM41.3585 22.9091V4.90909H46.029V7.19318H46.1312C46.3017 6.75 46.5517 6.34375 46.8812 5.97443C47.2108 5.59943 47.6199 5.30114 48.1085 5.07954C48.5971 4.85227 49.1653 4.73864 49.813 4.73864C50.6767 4.73864 51.4977 4.96875 52.2761 5.42898C53.0602 5.8892 53.6966 6.61364 54.1852 7.60227C54.6795 8.59091 54.9267 9.875 54.9267 11.4545C54.9267 12.9659 54.6909 14.2187 54.2193 15.2131C53.7534 16.2074 53.1284 16.9489 52.3443 17.4375C51.5659 17.9261 50.7108 18.1705 49.779 18.1705C49.1653 18.1705 48.617 18.071 48.1341 17.8722C47.6568 17.6676 47.2477 17.392 46.9068 17.0455C46.5716 16.6932 46.313 16.2955 46.1312 15.8523H46.063V22.9091H41.3585ZM45.9608 11.4545C45.9608 12.0909 46.0432 12.642 46.2079 13.108C46.3784 13.5682 46.617 13.9261 46.9238 14.1818C47.2363 14.4318 47.6085 14.5568 48.0403 14.5568C48.4721 14.5568 48.8386 14.4347 49.1397 14.1903C49.4466 13.9403 49.6795 13.5852 49.8386 13.125C50.0034 12.6591 50.0858 12.1023 50.0858 11.4545C50.0858 10.8068 50.0034 10.2528 49.8386 9.79261C49.6795 9.3267 49.4466 8.97159 49.1397 8.72727C48.8386 8.47727 48.4721 8.35227 48.0403 8.35227C47.6085 8.35227 47.2363 8.47727 46.9238 8.72727C46.617 8.97159 46.3784 9.3267 46.2079 9.79261C46.0432 10.2528 45.9608 10.8068 45.9608 11.4545ZM69.1035 9.17045H64.7739C64.7512 8.90341 64.6574 8.6733 64.4927 8.48011C64.3279 8.28693 64.1148 8.1392 63.8535 8.03693C63.5978 7.92898 63.3137 7.875 63.0012 7.875C62.5978 7.875 62.2512 7.94886 61.9614 8.09659C61.6716 8.24432 61.5296 8.45455 61.5353 8.72727C61.5296 8.92045 61.612 9.09943 61.7824 9.2642C61.9586 9.42898 62.2966 9.55682 62.7966 9.64773L65.4557 10.125C66.7966 10.3693 67.7938 10.7812 68.4472 11.3608C69.1063 11.9347 69.4387 12.7045 69.4444 13.6705C69.4387 14.6023 69.1603 15.4119 68.6091 16.0994C68.0637 16.7812 67.3165 17.3097 66.3677 17.6847C65.4245 18.054 64.3478 18.2386 63.1376 18.2386C61.1376 18.2386 59.5722 17.8295 58.4415 17.0114C57.3165 16.1932 56.6887 15.1136 56.558 13.7727H61.2285C61.291 14.1875 61.4955 14.5085 61.8421 14.7358C62.1944 14.9574 62.6376 15.0682 63.1716 15.0682C63.6035 15.0682 63.9586 14.9943 64.237 14.8466C64.5211 14.6989 64.666 14.4886 64.6716 14.2159C64.666 13.9659 64.541 13.767 64.2966 13.6193C64.058 13.4716 63.683 13.3523 63.1716 13.2614L60.8535 12.8523C59.5182 12.6193 58.5182 12.1761 57.8535 11.5227C57.1887 10.8693 56.8591 10.0284 56.8648 9C56.8591 8.09091 57.0978 7.32102 57.5807 6.69034C58.0694 6.05398 58.7654 5.57102 59.6688 5.24148C60.5779 4.90625 61.6546 4.73864 62.8989 4.73864C64.791 4.73864 66.2824 5.13068 67.3734 5.91477C68.4699 6.69886 69.0466 7.78409 69.1035 9.17045ZM74.0437 18.2727C73.3847 18.2727 72.8193 18.0426 72.3477 17.5824C71.8818 17.1165 71.6517 16.5511 71.6574 15.8864C71.6517 15.2386 71.8818 14.6847 72.3477 14.2244C72.8193 13.7642 73.3847 13.5341 74.0437 13.5341C74.6687 13.5341 75.2199 13.7642 75.6972 14.2244C76.1801 14.6847 76.4244 15.2386 76.4301 15.8864C76.4244 16.3295 76.308 16.733 76.0807 17.0966C75.8591 17.4545 75.5693 17.7415 75.2114 17.9574C74.8534 18.1676 74.4642 18.2727 74.0437 18.2727ZM79.2269 18V4.90909H83.6928V7.39773H83.8292C84.1019 6.57955 84.5678 5.93182 85.2269 5.45454C85.886 4.97727 86.6701 4.73864 87.5792 4.73864C88.4997 4.73864 89.2923 4.98295 89.957 5.47159C90.6218 5.95455 91.0224 6.59659 91.1588 7.39773H91.2951C91.5167 6.59659 91.9883 5.95455 92.7099 5.47159C93.4315 4.98295 94.2781 4.73864 95.2497 4.73864C96.5053 4.73864 97.5224 5.14205 98.3008 5.94886C99.0849 6.75568 99.4769 7.82955 99.4769 9.17045V18H94.7724V10.3636C94.7724 9.78977 94.6275 9.34091 94.3377 9.01705C94.048 8.6875 93.6588 8.52273 93.1701 8.52273C92.6872 8.52273 92.3036 8.6875 92.0195 9.01705C91.7411 9.34091 91.6019 9.78977 91.6019 10.3636V18H87.1019V10.3636C87.1019 9.78977 86.957 9.34091 86.6673 9.01705C86.3775 8.6875 85.9883 8.52273 85.4997 8.52273C85.1758 8.52273 84.8974 8.59659 84.6644 8.74432C84.4315 8.89205 84.2497 9.10511 84.119 9.38352C83.994 9.65625 83.9315 9.98295 83.9315 10.3636V18H79.2269ZM105.685 18.2045C104.85 18.2045 104.111 18.0682 103.469 17.7955C102.833 17.517 102.333 17.0966 101.969 16.5341C101.605 15.9716 101.424 15.2557 101.424 14.3864C101.424 13.6705 101.546 13.0597 101.79 12.554C102.034 12.0426 102.375 11.625 102.813 11.3011C103.25 10.9773 103.759 10.7301 104.338 10.5597C104.924 10.3892 105.554 10.2784 106.23 10.2273C106.963 10.1705 107.551 10.1023 107.995 10.0227C108.443 9.9375 108.767 9.82102 108.966 9.6733C109.165 9.51989 109.265 9.31818 109.265 9.06818V9.03409C109.265 8.69318 109.134 8.43182 108.872 8.25C108.611 8.06818 108.276 7.97727 107.867 7.97727C107.418 7.97727 107.051 8.0767 106.767 8.27557C106.489 8.46875 106.321 8.76705 106.265 9.17045H101.935C101.992 8.375 102.245 7.64205 102.693 6.97159C103.148 6.29545 103.81 5.75568 104.679 5.35227C105.549 4.94318 106.634 4.73864 107.935 4.73864C108.872 4.73864 109.713 4.84943 110.458 5.07102C111.202 5.28693 111.836 5.59091 112.358 5.98295C112.881 6.36932 113.279 6.82386 113.551 7.34659C113.83 7.86364 113.969 8.42614 113.969 9.03409V18H109.571V16.1591H109.469C109.208 16.6477 108.89 17.0426 108.515 17.3438C108.145 17.6449 107.722 17.8636 107.245 18C106.773 18.1364 106.253 18.2045 105.685 18.2045ZM107.219 15.2386C107.577 15.2386 107.912 15.1648 108.225 15.017C108.543 14.8693 108.801 14.6562 109 14.3778C109.199 14.0994 109.299 13.7614 109.299 13.3636V12.2727C109.174 12.3239 109.04 12.3722 108.898 12.4176C108.762 12.4631 108.614 12.5057 108.455 12.5455C108.301 12.5852 108.137 12.6222 107.961 12.6562C107.79 12.6903 107.611 12.7216 107.424 12.75C107.06 12.8068 106.762 12.9006 106.529 13.0312C106.301 13.1562 106.131 13.3125 106.017 13.5C105.909 13.6818 105.855 13.8864 105.855 14.1136C105.855 14.4773 105.983 14.7557 106.239 14.9489C106.495 15.142 106.821 15.2386 107.219 15.2386ZM116.457 18V4.90909H121.025V7.39773H121.161C121.4 6.47727 121.778 5.80398 122.295 5.37784C122.818 4.9517 123.429 4.73864 124.127 4.73864C124.332 4.73864 124.534 4.75568 124.732 4.78977C124.937 4.81818 125.133 4.8608 125.321 4.91761V8.93182C125.088 8.85227 124.801 8.79261 124.46 8.75284C124.119 8.71307 123.826 8.69318 123.582 8.69318C123.122 8.69318 122.707 8.7983 122.338 9.00852C121.974 9.21307 121.687 9.50284 121.477 9.87784C121.267 10.2472 121.161 10.6818 121.161 11.1818V18H116.457ZM131.33 14.8977L131.365 9.30682H131.978L135.149 4.90909H140.433L135.115 11.7614H133.785L131.33 14.8977ZM127.103 18V0.545454H131.808V18H127.103ZM135.183 18L132.183 12.8182L135.251 9.47727L140.569 18H135.183ZM147.632 18.2386C146.234 18.2386 145.029 17.9716 144.018 17.4375C143.012 16.8977 142.237 16.125 141.691 15.1193C141.151 14.108 140.882 12.8977 140.882 11.4886C140.882 10.1364 141.154 8.95455 141.7 7.94318C142.245 6.93182 143.015 6.14489 144.009 5.58239C145.004 5.01989 146.177 4.73864 147.529 4.73864C148.518 4.73864 149.413 4.89205 150.214 5.19886C151.015 5.50568 151.7 5.9517 152.268 6.53693C152.836 7.11648 153.274 7.82102 153.58 8.65057C153.887 9.48011 154.041 10.4148 154.041 11.4545V12.5455H142.347V9.95455H149.711C149.705 9.57955 149.609 9.25 149.421 8.96591C149.239 8.67614 148.992 8.4517 148.68 8.29261C148.373 8.12784 148.024 8.04545 147.632 8.04545C147.251 8.04545 146.901 8.12784 146.583 8.29261C146.265 8.4517 146.009 8.6733 145.816 8.95739C145.629 9.24148 145.529 9.57386 145.518 9.95455V12.75C145.518 13.1705 145.606 13.5455 145.782 13.875C145.958 14.2045 146.211 14.4631 146.541 14.6506C146.87 14.8381 147.268 14.9318 147.734 14.9318C148.058 14.9318 148.353 14.8864 148.62 14.7955C148.893 14.7045 149.126 14.5739 149.319 14.4034C149.512 14.2273 149.654 14.017 149.745 13.7727H154.041C153.893 14.6818 153.543 15.4716 152.992 16.142C152.441 16.8068 151.711 17.3239 150.802 17.6932C149.899 18.0568 148.842 18.2386 147.632 18.2386ZM164.007 4.90909V8.31818H155.382V4.90909H164.007ZM157.053 1.77273H161.757V13.7898C161.757 13.9716 161.788 14.125 161.851 14.25C161.913 14.3693 162.01 14.4602 162.141 14.5227C162.271 14.5795 162.439 14.608 162.644 14.608C162.786 14.608 162.95 14.5909 163.138 14.5568C163.331 14.5227 163.473 14.4943 163.564 14.4716L164.246 17.7784C164.036 17.8409 163.734 17.9176 163.342 18.0085C162.956 18.0994 162.496 18.1591 161.962 18.1875C160.882 18.2443 159.976 18.1335 159.243 17.8551C158.51 17.571 157.959 17.125 157.59 16.517C157.22 15.9091 157.041 15.1477 157.053 14.233V1.77273Z" fill="#252525"/>
</svg>
