<svg width="32" height="32" viewBox="0 0 32 32" fill="none" xmlns="http://www.w3.org/2000/svg">
<rect width="32" height="32" fill="#007AFF"/>
<path d="M25.6884 6.12277C25.9339 6.30134 26.0343 6.53943 25.9897 6.83705L23.1326 23.9799C23.0954 24.1957 22.9764 24.3631 22.7755 24.4821C22.6713 24.5417 22.556 24.5714 22.4295 24.5714C22.3477 24.5714 22.2584 24.5528 22.1616 24.5156L17.1059 22.4509L14.4051 25.7433C14.2712 25.9144 14.0889 26 13.8582 26C13.7615 26 13.6797 25.9851 13.6127 25.9554C13.4713 25.9033 13.3579 25.8158 13.2723 25.6931C13.1867 25.5703 13.144 25.4345 13.144 25.2857V21.3906L22.7866 9.57143L10.8561 19.8951L6.44766 18.0871C6.17237 17.9829 6.02356 17.7783 6.00124 17.4732C5.98636 17.1756 6.1054 16.9561 6.35838 16.8147L24.9294 6.10045C25.0411 6.03348 25.1601 6 25.2866 6C25.4354 6 25.5693 6.04092 25.6884 6.12277Z" fill="white"/>
</svg>
